# xmcd
#
# Track frame offsets: 
#        150
#        2367
#        24208
#        43293
#        68056
#        92684
#        116486
#        140854
#        158093
#        181082
#        226884
#
# Disc length: 3830 seconds
#
# Revision: 0
# Processed by: cddbd v1.5.2PL0 Copyright (c) Steve Scherf et al.
# Submitted via: ExactAudioCopy v0.95a5
#
DISCID=800ef40b
DTITLE=Paul Butterfield Band - Rockpalast:Blues Rock Legends Vol. 2
DYEAR=1978
DGENRE=Blues
TTITLE0=Rockpalast-Intro
TTITLE1=Fair Enough
TTITLE2=One more Heartache
TTITLE3=Fool in Love
TTITLE4=New Walking Blues
TTITLE5=It´s Alright
TTITLE6=Goin´Down
TTITLE7=Born under a bad Sign
TTITLE8=Just when i need you most
TTITLE9=Be good to yourself
TTITLE10=Interview(with Allen Bangs)
EXTD=
EXTT0=
EXTT1=
EXTT2=
EXTT3=
EXTT4=
EXTT5=
EXTT6=
EXTT7=
EXTT8=
EXTT9=
EXTT10=
PLAYORDER=
